<?xml version="1.0" encoding="UTF-8"?>
<svg version="1.1" xmlns="http://www.w3.org/2000/svg" width="500" height="500">
<path d="M0 0 C165 0 330 0 500 0 C500 165 500 330 500 500 C335 500 170 500 0 500 C0 335 0 170 0 0 Z " fill="#FEFEFE" transform="translate(0,0)"/>
<path d="M0 0 C0 0.66 0 1.32 0 2 C1.03253906 2.33064453 1.03253906 2.33064453 2.0859375 2.66796875 C21.62916932 11.60126908 35.70670567 35.01824553 42.9375 54.25 C50.16977893 76.30461738 51.40862771 99.36039697 44.5625 121.6875 C44.25469604 122.69466064 44.25469604 122.69466064 43.94067383 123.72216797 C42.75862799 127.34735508 41.35314486 130.02929137 39 133 C38.07360748 122.51202519 37.87618294 112.14376739 37.9375 101.625 C37.94253269 100.09895983 37.94709242 98.57291802 37.95117188 97.046875 C37.96201981 93.36454846 37.97918346 89.68228531 38 86 C38.66 86 39.32 86 40 86 C40 85.01 40 84.02 40 83 C39.01 83 38.02 83 37 83 C37 79.7 37 76.4 37 73 C37.99 73 38.98 73 40 73 C40 69.7 40 66.4 40 63 C36.1285239 60.82504641 36.1285239 60.82504641 32 60 C29.06419212 61.85045905 29.06419212 61.85045905 27 65 C26.58027611 67.80852283 26.75741221 70.13746405 27 73 C27.99 73 28.98 73 30 73 C30 76.3 30 79.6 30 83 C29.01 83 28.02 83 27 83 C27 83.99 27 84.98 27 86 C27.66 86 28.32 86 29 86 C29 89.3 29 92.6 29 96 C28.01 95.67 27.02 95.34 26 95 C25.55398438 94.07703125 25.10796875 93.1540625 24.6484375 92.203125 C22.76515645 88.54366894 20.97776984 87.08316038 17.625 84.75 C16.68914062 84.08484375 15.75328125 83.4196875 14.7890625 82.734375 C12.22543392 81.1401858 9.80891439 80.07095733 7 79 C6.01 78.34 5.02 77.68 4 77 C3.67 77.66 3.34 78.32 3 79 C1.14453125 79.9296875 1.14453125 79.9296875 -1.1875 80.875 C-6.287209 83.05595663 -11.46928578 85.58660723 -15 90 C-15.309375 90.845625 -15.61875 91.69125 -15.9375 92.5625 C-17.21233002 95.48711004 -18.17308052 95.76072419 -21 97 C-21.00410889 96.42032471 -21.00821777 95.84064941 -21.01245117 95.2434082 C-21.04549277 92.59875891 -21.11614264 89.95638161 -21.1875 87.3125 C-21.19330078 86.40048828 -21.19910156 85.48847656 -21.20507812 84.54882812 C-21.37277133 78.83149822 -21.37277133 78.83149822 -24.4375 74.09765625 C-25.283125 73.40542969 -26.12875 72.71320313 -27 72 C-28.08203125 70.0078125 -28.08203125 70.0078125 -28.8125 68.125 C-33.46957683 58.46788333 -43.35300239 54.43964372 -52.46484375 49.8203125 C-56 48 -56 48 -57 47 C-57.04063832 45.33382885 -57.042721 43.66611905 -57 42 C-57.66 42 -58.32 42 -59 42 C-59.00257813 42.90105469 -59.00515625 43.80210937 -59.0078125 44.73046875 C-60.10730036 48.35358426 -60.36843667 48.59089769 -63.4921875 50.30078125 C-64.94246643 50.99410472 -66.40411716 51.66403252 -67.875 52.3125 C-68.97521484 52.83166992 -68.97521484 52.83166992 -70.09765625 53.36132812 C-73.04136194 54.73666603 -75.91429211 55.9714307 -79 57 C-79 57.66 -79 58.32 -79 59 C-80.3303125 60.051875 -80.3303125 60.051875 -81.6875 61.125 C-84.93326582 63.69711631 -86.79767012 66.55327299 -88.82421875 70.1328125 C-90.03038945 72.04825967 -91.38594271 73.42596066 -93 75 C-94.14654482 77.29308963 -94.19729117 78.79909656 -94.31640625 81.3515625 C-94.35830078 82.20234375 -94.40019531 83.053125 -94.44335938 83.9296875 C-94.48267578 84.81914062 -94.52199219 85.70859375 -94.5625 86.625 C-94.62727539 87.97078125 -94.62727539 87.97078125 -94.69335938 89.34375 C-94.79956861 91.56234283 -94.90161194 93.7810488 -95 96 C-96.921875 95.66796875 -96.921875 95.66796875 -99 95 C-99.4125 94.113125 -99.825 93.22625 -100.25 92.3125 C-103.30627532 86.52740742 -108.50579415 83.58715449 -114.375 81 C-117.61617482 79.50016224 -117.89429167 79.22903471 -119.5 75.75 C-119.7475 74.38875 -119.7475 74.38875 -120 73 C-120.144375 73.9075 -120.28875 74.815 -120.4375 75.75 C-122.72527551 80.50857305 -126.20041687 81.30066573 -131 83 C-133.86673164 83.96026816 -133.86673164 83.96026816 -136 85 C-136.33 85.99 -136.66 86.98 -137 88 C-137.66 88 -138.32 88 -139 88 C-139.268125 88.763125 -139.53625 89.52625 -139.8125 90.3125 C-140.94678603 92.87956839 -141.86335941 94.23494908 -144 96 C-144.33 96 -144.66 96 -145 96 C-145 92.7 -145 89.4 -145 86 C-144.01 86 -143.02 86 -142 86 C-142.33 85.01 -142.66 84.02 -143 83 C-143.66 82.67 -144.32 82.34 -145 82 C-145 79.03 -145 76.06 -145 73 C-144.01 73 -143.02 73 -142 73 C-142.165 72.46375 -142.33 71.9275 -142.5 71.375 C-143.09660212 68.54113991 -143.0656368 65.8880194 -143 63 C-146.8151449 60.89331781 -146.8151449 60.89331781 -151 60 C-153.39294394 61.30357301 -153.39294394 61.30357301 -155 64 C-155.62213003 66.99239405 -155.86963757 69.94951918 -156 73 C-155.01 73 -154.02 73 -153 73 C-153 76.3 -153 79.6 -153 83 C-153.99 83 -154.98 83 -156 83 C-156 83.99 -156 84.98 -156 86 C-155.01 86 -154.02 86 -153 86 C-152.78587699 102.01164257 -153.42987095 118.00151175 -154 134 C-154.66 134 -155.32 134 -156 134 C-167.12692183 102.82362467 -167.43122753 71.77036527 -153.37109375 41.4921875 C-149.46582808 33.82663121 -144.65772594 27.44901628 -139 21 C-138.38640625 20.24203125 -137.7728125 19.4840625 -137.140625 18.703125 C-103.1113144 -22.306557 -43.91213901 -24.82951485 0 0 Z " fill="#9FAB6C" transform="translate(308,169)"/>
<path d="M0 0 C3.04818495 3.46586626 4.27128777 7.28021793 5.5625 11.625 C5.77793457 12.337771 5.99336914 13.05054199 6.21533203 13.78491211 C10.73603145 29.01425534 10.73603145 29.01425534 9 37 C8.566875 36.525625 8.13375 36.05125 7.6875 35.5625 C5.97690387 33.76313043 5.97690387 33.76313043 3 33 C2.67 32.67 2.34 32.34 2 32 C2 32.99 2 33.98 2 35 C2.66 35.33 3.32 35.66 4 36 C4.66 36.33 5.32 36.66 6 37 C5.67 38.32 5.34 39.64 5 41 C4.01 41 3.02 41 2 41 C2 40.01 2 39.02 2 38 C1.01 38 0.02 38 -1 38 C-1 34.7 -1 31.4 -1 28 C-0.01 28 0.98 28 2 28 C2 24.7 2 21.4 2 18 C0.68 17.34 -0.64 16.68 -2 16 C-1.67 15.01 -1.34 14.02 -1 13 C-0.34 12.67 0.32 12.34 1 12 C0.835 11.319375 0.67 10.63875 0.5 9.9375 C-0.07089059 6.5835178 -0.06659023 3.39610195 0 0 Z " fill="#A6AF7C" transform="translate(346,214)"/>
<path d="M0 0 C2.54014875 3.81022313 2.58606955 6.53470816 2 11 C0.875 13 0.875 13 -1 14 C-4.63031776 14.54068562 -6.32214079 14.46379841 -9.375 12.375 C-11.4753727 9.30522452 -11.53293835 7.65443439 -11 4 C-8.26248658 -0.82323792 -5.20938351 -1.60288723 0 0 Z " fill="#8C9178" transform="translate(303,290)"/>
<path d="M0 0 C3.375 1 3.375 1 4.875 2.625 C5.58270325 5.98659046 5.10310685 8.66284359 4.375 12 C3.385 13.485 3.385 13.485 2.375 15 C-3.75 15.4375 -3.75 15.4375 -6.625 14 C-7.82254817 10.40735548 -7.95594958 7.77282526 -7.625 4 C-5.34423988 0.35078381 -4.33245911 0 0 0 Z " fill="#878E6D" transform="translate(316.625,289)"/>
<path d="M0 0 C0 0.66 0 1.32 0 2 C-0.66 2 -1.32 2 -2 2 C-2.08096803 3.45742463 -2.13917774 4.91612807 -2.1875 6.375 C-2.22230469 7.18710938 -2.25710937 7.99921875 -2.29296875 8.8359375 C-2.19628906 9.55007812 -2.09960938 10.26421875 -2 11 C-1.01 11.66 -0.02 12.32 1 13 C1.33 10.69 1.66 8.38 2 6 C2.99 6 3.98 6 5 6 C5.33 5.01 5.66 4.02 6 3 C7.65 3.99 9.3 4.98 11 6 C10.01 7.485 10.01 7.485 9 9 C8.61500109 10.65549531 8.27206865 12.3222433 8 14 C8.99 14.33 9.98 14.66 11 15 C10.67 15.66 10.34 16.32 10 17 C6.01272935 18.17272666 2.12235388 18.44971133 -2 18 C-4.71538955 15.84161344 -5.78632989 14.23796494 -6.37890625 10.8046875 C-6.58189349 6.83661439 -6.51454198 4.70320737 -4.125 1.4375 C-2 0 -2 0 0 0 Z " fill="#AEB882" transform="translate(248,185)"/>
<path d="M0 0 C0.99 0 1.98 0 3 0 C3 0.99 3 1.98 3 3 C3.99 3 4.98 3 6 3 C6.33 2.01 6.66 1.02 7 0 C7.99 0 8.98 0 10 0 C10 4.95 10 9.9 10 15 C5.38 15 0.76 15 -4 15 C-4.33 14.01 -4.66 13.02 -5 12 C-3.35 12 -1.7 12 0 12 C0 8.04 0 4.08 0 0 Z " fill="#F3F7E4" transform="translate(214,289)"/>
<path d="M0 0 C7 0 7 0 10 2.0625 C12 5 12 5 12.0625 8.625 C11 12 11 12 9.375 13.9375 C7 15 7 15 0 15 C0 10.05 0 5.1 0 0 Z " fill="#8E9577" transform="translate(227,289)"/>
<path d="M0 0 C2.88437779 1.29299694 4.87219421 2.65941363 7 5 C7.598125 4.175 8.19625 3.35 8.8125 2.5 C9.534375 1.675 10.25625 0.85 11 0 C11.99 0 12.98 0 14 0 C14 4.95 14 9.9 14 15 C13.01 15 12.02 15 11 15 C10.67 12.03 10.34 9.06 10 6 C8.68 7.32 7.36 8.64 6 10 C5.01 8.68 4.02 7.36 3 6 C2.67 8.97 2.34 11.94 2 15 C1.01 15 0.02 15 -1 15 C-1.02685412 12.68756208 -1.04632841 10.3750373 -1.0625 8.0625 C-1.07410156 6.77472656 -1.08570313 5.48695313 -1.09765625 4.16015625 C-1 1 -1 1 0 0 Z " fill="#838A6A" transform="translate(163,289)"/>
<path d="M0 0 C7 0 7 0 10 2 C10.1875 4.375 10.1875 4.375 10 7 C10 10.11257569 10.17361624 12.10765685 11 15 C9.125 14.75 9.125 14.75 7 14 C5.875 12 5.875 12 5 10 C4.34 9.67 3.68 9.34 3 9 C3 10.98 3 12.96 3 15 C2.01 15 1.02 15 0 15 C0 10.05 0 5.1 0 0 Z " fill="#7C8461" transform="translate(326,289)"/>
<path d="M0 0 C0.99 0 1.98 0 3 0 C4.32 2.31 5.64 4.62 7 7 C7.33 4.69 7.66 2.38 8 0 C8.99 0 9.98 0 11 0 C11 4.95 11 9.9 11 15 C7 14 7 14 5.25 11.4375 C4.8375 10.633125 4.425 9.82875 4 9 C3.67 10.98 3.34 12.96 3 15 C2.01 15 1.02 15 0 15 C0 10.05 0 5.1 0 0 Z " fill="#92997C" transform="translate(263,289)"/>
<path d="M0 0 C1.65 0.33 3.3 0.66 5 1 C5.50471197 2.76949612 6.00360685 4.54065223 6.5 6.3125 C6.7784375 7.29863281 7.056875 8.28476562 7.34375 9.30078125 C8 12 8 12 8 15 C7.01 15 6.02 15 5 15 C5 14.01 5 13.02 5 12 C2.52733235 12.34444881 2.52733235 12.34444881 0 13 C-0.33 13.66 -0.66 14.32 -1 15 C-1.99 15 -2.98 15 -4 15 C-3.32584613 9.7415998 -1.75734451 4.97361654 0 0 Z " fill="#8A9072" transform="translate(184,289)"/>
<path d="M0 0 C1.32 0 2.64 0 4 0 C5.32 2.64 6.64 5.28 8 8 C8.33 5.69 8.66 3.38 9 1 C9.66 1 10.32 1 11 1 C11 5.62 11 10.24 11 15 C6.82200357 12.91100178 6.07608099 11.94455388 4 8 C3.67 10.31 3.34 12.62 3 15 C2.01 15 1.02 15 0 15 C0 10.05 0 5.1 0 0 Z " fill="#89906F" transform="translate(277,289)"/>
<path d="M0 0 C1.65 0.33 3.3 0.66 5 1 C5.50692692 2.5811292 6.00526443 4.16501383 6.5 5.75 C6.7784375 6.63171875 7.056875 7.5134375 7.34375 8.421875 C8 11 8 11 8 15 C7.01 14.67 6.02 14.34 5 14 C5 13.01 5 12.02 5 11 C3.35 11.33 1.7 11.66 0 12 C-0.33 12.99 -0.66 13.98 -1 15 C-1.99 15 -2.98 15 -4 15 C-2.07289294 4.44191344 -2.07289294 4.44191344 0 0 Z " fill="#7B8260" transform="translate(251,289)"/>
<path d="M0 0 C1.32 0 2.64 0 4 0 C3.25 1.9375 3.25 1.9375 2 4 C0.67405895 4.36162029 -0.65938457 4.69728039 -2 5 C-2.33 5.99 -2.66 6.98 -3 8 C-3.66 8 -4.32 8 -5 8 C-5.4021875 9.1446875 -5.4021875 9.1446875 -5.8125 10.3125 C-6.94678603 12.87956839 -7.86335941 14.23494908 -10 16 C-10.33 16 -10.66 16 -11 16 C-11 12.7 -11 9.4 -11 6 C-10.01 6 -9.02 6 -8 6 C-8.33 4.68 -8.66 3.36 -9 2 C-8.34 2 -7.68 2 -7 2 C-6.67 2.66 -6.34 3.32 -6 4 C-3.53199953 2.84826645 -1.95216435 1.95216435 0 0 Z " fill="#A3AB7C" transform="translate(174,249)"/>
<path d="M0 0 C1.4540625 0.0309375 1.4540625 0.0309375 2.9375 0.0625 C3.2675 1.0525 3.5975 2.0425 3.9375 3.0625 C2.2875 3.0625 0.6375 3.0625 -1.0625 3.0625 C-1.0625 4.0525 -1.0625 5.0425 -1.0625 6.0625 C0.5875 6.3925 2.2375 6.7225 3.9375 7.0625 C4.5625 9.375 4.5625 9.375 4.9375 12.0625 C3.9475 13.5475 3.9475 13.5475 2.9375 15.0625 C-0.14171132 15.31910094 -2.27386993 15.45681504 -5.0625 14.0625 C-5.0625 13.4025 -5.0625 12.7425 -5.0625 12.0625 C-2.7525 12.0625 -0.4425 12.0625 1.9375 12.0625 C1.9375 11.0725 1.9375 10.0825 1.9375 9.0625 C1.009375 8.8459375 1.009375 8.8459375 0.0625 8.625 C-2.0625 8.0625 -2.0625 8.0625 -4.0625 7.0625 C-4.10504356 5.06295254 -4.10330783 3.06208364 -4.0625 1.0625 C-3.0625 0.0625 -3.0625 0.0625 0 0 Z " fill="#838870" transform="translate(201.0625,288.9375)"/>
<path d="M0 0 C0.99 0 1.98 0 3 0 C3.68359375 4.6875 3.68359375 4.6875 4 7 C4.17402344 8.14082031 4.34804688 9.28164062 4.52734375 10.45703125 C5.23662669 16.18570189 5.14521166 21.92380845 5.125 27.6875 C5.12886719 28.80189453 5.13273437 29.91628906 5.13671875 31.06445312 C5.13542969 32.14017578 5.13414062 33.21589844 5.1328125 34.32421875 C5.13168457 35.29447998 5.13055664 36.26474121 5.12939453 37.2644043 C5.00280729 39.94064965 4.59771965 42.39217351 4 45 C3.67 45 3.34 45 3 45 C3.01571045 44.4330542 3.0314209 43.8661084 3.04760742 43.28198242 C3.33647558 31.16780274 2.86383575 19.69807329 0.65625 7.7734375 C0 4 0 4 0 0 Z " fill="#F8FAE8" transform="translate(353,230)"/>
<path d="M0 0 C0 0.66 0 1.32 0 2 C-0.66 2 -1.32 2 -2 2 C-2.57328305 8.06876462 -2.57328305 8.06876462 -0.3125 13.5 C2.18123741 15.1175594 4.06214703 15.67357189 7 16 C5 18 5 18 1.625 18.4375 C-2 18 -2 18 -4.4375 16.0625 C-6.52899436 11.96317105 -6.86003853 8.51941814 -6 4 C-3.07317073 0 -3.07317073 0 0 0 Z " fill="#EFF3D6" transform="translate(248,185)"/>
<path d="M0 0 C0 0.99 0 1.98 0 3 C-0.66 3 -1.32 3 -2 3 C-5.52114396 5.49414364 -6.01303667 8.97622641 -7 13 C-9 11.9375 -9 11.9375 -11 10 C-11.52238806 4.04477612 -11.52238806 4.04477612 -10 1 C-6.61964088 0.37400757 -3.43830115 0 0 0 Z " fill="#A0A87E" transform="translate(256,186)"/>
<path d="M0 0 C0 0.66 0 1.32 0 2 C-0.99 2 -1.98 2 -3 2 C-2.48001731 6.23985883 -1.77048925 10.09557796 0 14 C3.14685815 16.18911871 6.27358331 17.18899749 10 18 C9.67 18.66 9.34 19.32 9 20 C-1.13793103 16.86206897 -1.13793103 16.86206897 -4 14 C-4.04063832 12.33382885 -4.042721 10.66611905 -4 9 C-4.66 9 -5.32 9 -6 9 C-6 6.36 -6 3.72 -6 1 C-3.92446352 0.4465236 -2.15634036 0 0 0 Z " fill="#AEB688" transform="translate(255,202)"/>
<path d="M0 0 C0.061875 0.928125 0.061875 0.928125 0.125 1.875 C0.41375 2.57625 0.7025 3.2775 1 4 C3.99615946 5.3045656 3.99615946 5.3045656 7 6 C7 6.99 7 7.98 7 9 C4.69 9 2.38 9 0 9 C0 9.66 0 10.32 0 11 C-1.32 11.33 -2.64 11.66 -4 12 C-4.66 8.7 -5.32 5.4 -6 2 C-5.01 2.495 -5.01 2.495 -4 3 C-4 4.65 -4 6.3 -4 8 C-1.53721199 5.53721199 -1.00228745 3.29323018 0 0 Z " fill="#ECF0DC" transform="translate(196,292)"/>
<path d="M0 0 C1.23814453 0.00902344 2.47628906 0.01804688 3.75195312 0.02734375 C6.77234511 0.05066724 9.79231399 0.08339523 12.8125 0.125 C12.8125 0.455 12.8125 0.785 12.8125 1.125 C12.19842285 1.13958252 11.5843457 1.15416504 10.95166016 1.16918945 C8.11304015 1.24461945 5.27547742 1.34095776 2.4375 1.4375 C1.47199219 1.46005859 0.50648438 1.48261719 -0.48828125 1.50585938 C-6.41072239 1.72447297 -11.46979694 2.55857159 -17.0546875 4.57226562 C-20.19610814 5.38638837 -22.35195721 4.5427714 -25.1875 3.125 C-25.1875 2.795 -25.1875 2.465 -25.1875 2.125 C-16.72704733 0.20399104 -8.65319486 -0.12128467 0 0 Z " fill="#ABB28A" transform="translate(251.1875,152.875)"/>
<path d="M0 0 C2.625 0.375 2.625 0.375 5 1 C5.04241723 3.33294775 5.04092937 5.66702567 5 8 C4 9 4 9 1.5 9.125 C-1 9 -1 9 -2 8 C-2.1875 5.0625 -2.1875 5.0625 -2 2 C-1.34 1.34 -0.68 0.68 0 0 Z " fill="#F3F5EA" transform="translate(297,292)"/>
<path d="M0 0 C0.99 0.33 1.98 0.66 3 1 C3 6.61 3 12.22 3 18 C1.68 17.67 0.36 17.34 -1 17 C-1.33 15.35 -1.66 13.7 -2 12 C-1.34 12 -0.68 12 0 12 C0 8.04 0 4.08 0 0 Z " fill="#A2AA7E" transform="translate(210,247)"/>
<path d="M0 0 C1.67542976 0.28604898 3.34385343 0.61781233 5 1 C6.125 6.75 6.125 6.75 5 9 C3.33388095 9.042721 1.66617115 9.04063832 0 9 C-1 8 -1 8 -1.125 4.5 C-1 1 -1 1 0 0 Z " fill="#F6F8E9" transform="translate(313,292)"/>
<path d="M0 0 C0.99 0 1.98 0 3 0 C3.05406122 1.93719378 3.09282025 3.87481921 3.125 5.8125 C3.14820313 6.89144531 3.17140625 7.97039062 3.1953125 9.08203125 C3 12 3 12 1 15 C-1.625 15.1875 -1.625 15.1875 -4 15 C-4.33 14.01 -4.66 13.02 -5 12 C-3.35 12 -1.7 12 0 12 C0 8.04 0 4.08 0 0 Z " fill="#848973" transform="translate(214,289)"/>
<path d="M0 0 C0 3 0 3 -1.49609375 5.31640625 C-3.28574331 8.50988482 -3.25353921 10.31707408 -3.0625 13.9375 C-2.93561697 18.41150603 -3.15006717 21.83765113 -5 26 C-5.33 26 -5.66 26 -6 26 C-6.08115993 22.93696422 -6.14057409 19.87609185 -6.1875 16.8125 C-6.21263672 15.94818359 -6.23777344 15.08386719 -6.26367188 14.19335938 C-6.31980871 9.30945456 -6.26570457 5.92036796 -3 2 C-2.01 1.34 -1.02 0.68 0 0 Z " fill="#F6F8E4" transform="translate(219,239)"/>
<path d="M0 0 C0.33 0 0.66 0 1 0 C1 4.95 1 9.9 1 15 C-0.32 15 -1.64 15 -3 15 C-3.53341184 13.42085985 -4.05125763 11.83645613 -4.5625 10.25 C-4.85253906 9.36828125 -5.14257812 8.4865625 -5.44140625 7.578125 C-6.01697435 4.92165684 -5.89248371 3.52968894 -5 1 C-4.34 2.98 -3.68 4.96 -3 7 C-1.25372522 4.38058783 -0.61277612 2.96175123 0 0 Z " fill="#F0F3E7" transform="translate(262,289)"/>
<path d="M0 0 C1.07349791 4.29399165 0.79682816 5.19495213 -1 9 C-1.99 9 -2.98 9 -4 9 C-4.0825 9.78375 -4.165 10.5675 -4.25 11.375 C-5 14 -5 14 -7.0625 15.3125 C-7.701875 15.539375 -8.34125 15.76625 -9 16 C-9.33 15.34 -9.66 14.68 -10 14 C-6.7 9.38 -3.4 4.76 0 0 Z " fill="#A8B182" transform="translate(167,192)"/>
<path d="M0 0 C0 0.66 0 1.32 0 2 C-1.21558594 1.84660156 -2.43117188 1.69320312 -3.68359375 1.53515625 C-9.79693393 0.85589623 -15.91830089 0.65377014 -22.0625 0.4375 C-23.21427734 0.39431641 -24.36605469 0.35113281 -25.55273438 0.30664062 C-28.36839491 0.20149148 -31.18412976 0.09934607 -34 0 C-34 -0.33 -34 -0.66 -34 -1 C-10.4365862 -2.98911935 -10.4365862 -2.98911935 0 0 Z " fill="#FAFBE6" transform="translate(273,153)"/>
<path d="M0 0 C2.475 0.495 2.475 0.495 5 1 C5.625 3.3125 5.625 3.3125 6 6 C5.01 7.485 5.01 7.485 4 9 C2.68 9 1.36 9 0 9 C0 6.03 0 3.06 0 0 Z " fill="#ECF0DD" transform="translate(230,292)"/>
<path d="M0 0 C2 2 2 2 2.1953125 3.9453125 C2.13020833 5.96354167 2.06510417 7.98177083 2 10 C1.01 10 0.02 10 -1 10 C-1 12.97 -1 15.94 -1 19 C-0.01 19.33 0.98 19.66 2 20 C2 20.99 2 21.98 2 23 C1.01 23 0.02 23 -1 23 C-4.25000775 16.4999845 -2.09271776 6.67053787 0 0 Z " fill="#F3F7DF" transform="translate(164,232)"/>
<path d="M0 0 C3.66415876 2.06312314 6.70548128 4.35872176 9.8125 7.1875 C10.60269531 7.90292969 11.39289063 8.61835938 12.20703125 9.35546875 C12.79871094 9.89816406 13.39039063 10.44085938 14 11 C10.62988351 11 8.95572035 10.25715628 5.9375 8.8125 C5.05964844 8.40644531 4.18179687 8.00039062 3.27734375 7.58203125 C0.53891964 5.67969546 -0.06374046 4.14731314 -1 1 C-0.67 0.67 -0.34 0.34 0 0 Z " fill="#A1AA7A" transform="translate(314,175)"/>
<path d="M0 0 C0.99 0 1.98 0 3 0 C3 4.95 3 9.9 3 15 C2.01 15 1.02 15 0 15 C0 10.05 0 5.1 0 0 Z " fill="#8B9174" transform="translate(221,289)"/>
<path d="M0 0 C0.33 0 0.66 0 1 0 C1 3.63 1 7.26 1 11 C-0.65 11 -2.3 11 -4 11 C-4.33 11.66 -4.66 12.32 -5 13 C-5.99 12.34 -6.98 11.68 -8 11 C-7.34 9.68 -6.68 8.36 -6 7 C-5.01 7 -4.02 7 -3 7 C-0.64046906 4.64046906 -0.50858587 3.22104383 0 0 Z " fill="#F6F9E9" transform="translate(213,290)"/>
<path d="M0 0 C0.33 0 0.66 0 1 0 C1.33 4.29 1.66 8.58 2 13 C2.99 13 3.98 13 5 13 C4.75 15.375 4.75 15.375 4 18 C2.02 18.99 2.02 18.99 0 20 C0 13.4 0 6.8 0 0 Z " fill="#ABB093" transform="translate(287,246)"/>
<path d="M0 0 C1.65 0.33 3.3 0.66 5 1 C4.835 1.94875 4.67 2.8975 4.5 3.875 C3.9473365 6.80168901 3.9473365 6.80168901 4 9 C2.68 9 1.36 9 0 9 C0 8.34 0 7.68 0 7 C-0.66 7 -1.32 7 -2 7 C-1.34 4.69 -0.68 2.38 0 0 Z " fill="#A6AD8C" transform="translate(251,289)"/>
<path d="M0 0 C6.625 -0.25 6.625 -0.25 10 2 C9.67 3.32 9.34 4.64 9 6 C7.02 6.33 5.04 6.66 3 7 C3.061875 6.21625 3.12375 5.4325 3.1875 4.625 C3.125625 3.75875 3.06375 2.8925 3 2 C2.01 1.34 1.02 0.68 0 0 Z " fill="#BDC2A9" transform="translate(326,289)"/>
<path d="M0 0 C1.32 0.33 2.64 0.66 4 1 C4 5.95 4 10.9 4 16 C3.67 16 3.34 16 3 16 C3 11.38 3 6.76 3 2 C2.34 2 1.68 2 1 2 C1 4.64 1 7.28 1 10 C-1.2477975 7.94766315 -2.0022242 6.99332739 -3 4 C-1.5625 1.8125 -1.5625 1.8125 0 0 Z " fill="#D2D7C3" transform="translate(285,288)"/>
<path d="M0 0 C0.66 0 1.32 0 2 0 C2 4.62 2 9.24 2 14 C-2 12 -2 12 -2.75 9.875 C-2.8325 9.25625 -2.915 8.6375 -3 8 C-2.01 8 -1.02 8 0 8 C0 5.36 0 2.72 0 0 Z " fill="#777F5B" transform="translate(286,290)"/>
<path d="M0 0 C2.0625 0.4375 2.0625 0.4375 4 1 C1.31158141 3.25245881 -0.64641875 4.88213958 -4 6 C-4 8.31 -4 10.62 -4 13 C-3.34 13.33 -2.68 13.66 -2 14 C-2.99 14 -3.98 14 -5 14 C-6.14106583 8.82131661 -6.14106583 8.82131661 -6 6 C-3.625 3.0625 -3.625 3.0625 -1 1 C-0.67 0.67 -0.34 0.34 0 0 Z " fill="#F0F4DA" transform="translate(340,228)"/>
<path d="M0 0 C0.66 0.33 1.32 0.66 2 1 C-0.12070908 5.12980189 -2.02145704 6.72654688 -6 9 C-7.7041054 10.62836738 -9.38025441 12.28769752 -11 14 C-11 10.45595664 -10.39010515 9.89732095 -8.125 7.3125 C-7.59132812 6.68988281 -7.05765625 6.06726563 -6.5078125 5.42578125 C-5 4 -5 4 -3 4 C-3 3.34 -3 2.68 -3 2 C-2.01 1.34 -1.02 0.68 0 0 Z " fill="#F1F3E1" transform="translate(232,224)"/>
<path d="M0 0 C0.99 0 1.98 0 3 0 C3.33 1.65 3.66 3.3 4 5 C3.34 5 2.68 5 2 5 C2 8.3 2 11.6 2 15 C1.34 15 0.68 15 0 15 C0 10.05 0 5.1 0 0 Z " fill="#7B835E" transform="translate(263,289)"/>
<path d="M0 0 C0.66 0 1.32 0 2 0 C2 0.99 2 1.98 2 3 C3.32 3.33 4.64 3.66 6 4 C6 4.66 6 5.32 6 6 C4.02 6 2.04 6 0 6 C0 7.32 0 8.64 0 10 C-0.99 10 -1.98 10 -3 10 C-2.49287967 6.28111761 -1.88391785 3.26545761 0 0 Z " fill="#7B8068" transform="translate(183,294)"/>
<path d="M0 0 C0.66 0 1.32 0 2 0 C2 3.96 2 7.92 2 12 C3.32 12 4.64 12 6 12 C6 12.66 6 13.32 6 14 C4.02 14 2.04 14 0 14 C0 9.38 0 4.76 0 0 Z " fill="#767E59" transform="translate(228,290)"/>
<path d="M0 0 C2 3 2 3 2.5 6.625 C2.665 7.73875 2.83 8.8525 3 10 C3.66 10.33 4.32 10.66 5 11 C5 13.64 5 16.28 5 19 C2.54330399 16.54330399 1.93290894 14.46783087 0.8125 11.1875 C0.44769531 10.14980469 0.08289063 9.11210937 -0.29296875 8.04296875 C-1.02424404 4.89565687 -0.89073446 3.06934613 0 0 Z " fill="#A3AB7D" transform="translate(148,283)"/>
<path d="M0 0 C1.32 0 2.64 0 4 0 C4 3.3 4 6.6 4 10 C3.01 9.67 2.02 9.34 1 9 C-0.25 5.5625 -0.25 5.5625 -1 2 C-0.67 1.34 -0.34 0.68 0 0 Z " fill="#A0A77B" transform="translate(333,255)"/>
<path d="M0 0 C0.61875 0.185625 1.2375 0.37125 1.875 0.5625 C4.04160178 1.23686176 4.04160178 1.23686176 6 0 C6.66 0.66 7.32 1.32 8 2 C6.54462432 2.83848804 5.08559627 3.67063934 3.625 4.5 C2.40683594 5.19609375 2.40683594 5.19609375 1.1640625 5.90625 C-1 7 -1 7 -3 7 C-3 7.66 -3 8.32 -3 9 C-3.99 9.33 -4.98 9.66 -6 10 C-6.33 9.01 -6.66 8.02 -7 7 C-2.375 4 -2.375 4 1 4 C0.67 2.68 0.34 1.36 0 0 Z " fill="#A3AC7F" transform="translate(232,219)"/>
<path d="M0 0 C0.66 0 1.32 0 2 0 C2 4.62 2 9.24 2 14 C0.68 13.67 -0.64 13.34 -2 13 C-2 12.01 -2 11.02 -2 10 C-1.34 10 -0.68 10 0 10 C0 6.7 0 3.4 0 0 Z " fill="#767F52" transform="translate(272,290)"/>
<path d="M0 0 C6.57791873 0.41044485 12.74051886 0.86608597 19 3 C19 3.33 19 3.66 19 4 C17.87980469 3.9278125 16.75960938 3.855625 15.60546875 3.78125 C14.13281566 3.68745044 12.66015923 3.59370317 11.1875 3.5 C10.44951172 3.45230469 9.71152344 3.40460938 8.95117188 3.35546875 C5.96175412 3.16609387 2.99625426 3 0 3 C0 2.01 0 1.02 0 0 Z " fill="#A2AA7B" transform="translate(261,154)"/>
<path d="M0 0 C0.66 0 1.32 0 2 0 C2.1953125 1.98567708 2.390625 3.97135417 2.5859375 5.95703125 C2.92665391 8.29988142 2.92665391 8.29988142 5 11 C2.13275314 10.42655063 1.1385485 10.1385485 -1 8 C-1.33333333 2.66666667 -1.33333333 2.66666667 0 0 Z " fill="#818964" transform="translate(293,292)"/>
<path d="M0 0 C1.4540625 0.0309375 1.4540625 0.0309375 2.9375 0.0625 C3.2675 1.0525 3.5975 2.0425 3.9375 3.0625 C2.2875 3.0625 0.6375 3.0625 -1.0625 3.0625 C-1.3925 4.0525 -1.7225 5.0425 -2.0625 6.0625 C-3.0525 6.5575 -3.0525 6.5575 -4.0625 7.0625 C-4.10504356 5.06295254 -4.10330783 3.06208364 -4.0625 1.0625 C-3.0625 0.0625 -3.0625 0.0625 0 0 Z " fill="#8D917C" transform="translate(201.0625,288.9375)"/>
<path d="M0 0 C2.76223278 2.76223278 2.57856291 5.20706617 3 9 C-0.47325181 10.1577506 -3.36067448 10.06866652 -7 10 C-3.25 8 -3.25 8 -1 8 C-0.67 5.36 -0.34 2.72 0 0 Z " fill="#E9EECD" transform="translate(187,240)"/>
<path d="M0 0 C0.33 1.32 0.66 2.64 1 4 C1.66 4 2.32 4 3 4 C2.625 5.9375 2.625 5.9375 2 8 C-0.70879335 9.35439668 -3.00933268 9.06501451 -6 9 C-5.67 8.01 -5.34 7.02 -5 6 C-2.9375 5.3125 -2.9375 5.3125 -1 5 C-0.67 3.35 -0.34 1.7 0 0 Z " fill="#919879" transform="translate(302,295)"/>
<path d="M0 0 C1.37095624 3.69037278 0.60010967 5.70883835 -0.9375 9.25 C-1.31777344 10.14203125 -1.69804687 11.0340625 -2.08984375 11.953125 C-2.39019531 12.62859375 -2.69054687 13.3040625 -3 14 C-3.33 14 -3.66 14 -4 14 C-4 10.7 -4 7.4 -4 4 C-3.67 4.66 -3.34 5.32 -3 6 C-2.34 6 -1.68 6 -1 6 C-0.67 4.02 -0.34 2.04 0 0 Z " fill="#A7AE84" transform="translate(351,288)"/>
<path d="M0 0 C2.56687367 3.8503105 1.83288724 5.58569763 1 10 C0.34 9.01 -0.32 8.02 -1 7 C-1.99 7.495 -1.99 7.495 -3 8 C-3.33 5.69 -3.66 3.38 -4 1 C-2.68 0.67 -1.36 0.34 0 0 Z " fill="#EFF2E7" transform="translate(308,290)"/>
<path d="M0 0 C-1.29598789 2.89104992 -2.49296136 5.03018393 -5 7 C-8.1875 8.1875 -8.1875 8.1875 -11 9 C-11 8.34 -11 7.68 -11 7 C-9.38263741 5.6072711 -7.7074998 4.28062485 -6 3 C-5.278125 2.4225 -4.55625 1.845 -3.8125 1.25 C-2 0 -2 0 0 0 Z " fill="#F1F3E1" transform="translate(180,250)"/>
<path d="M0 0 C0.99 0 1.98 0 3 0 C2.67 1.98 2.34 3.96 2 6 C-0.31 6.66 -2.62 7.32 -5 8 C-4.67 7.01 -4.34 6.02 -4 5 C-3.01 5 -2.02 5 -1 5 C-0.67 3.35 -0.34 1.7 0 0 Z " fill="#A8AF83" transform="translate(309,242)"/>
<path d="M0 0 C1.32 0 2.64 0 4 0 C3.75 3.375 3.75 3.375 3 7 C1.1875 8.5625 1.1875 8.5625 -1 9 C-3.25 8.125 -3.25 8.125 -5 7 C-3.68 6.67 -2.36 6.34 -1 6 C-0.67 4.02 -0.34 2.04 0 0 Z " fill="#888F71" transform="translate(235,294)"/>
<path d="M0 0 C3.48749314 2.78999451 6.50157221 5.25235831 9 9 C8.67 9.66 8.34 10.32 8 11 C4.36035887 9.08439941 2.5919601 7.79621255 1 4 C0.34 3.34 -0.32 2.68 -1 2 C-0.67 1.34 -0.34 0.68 0 0 Z " fill="#AAB287" transform="translate(329,189)"/>
<path d="M0 0 C0.99 0.495 0.99 0.495 2 1 C2 2.65 2 4.3 2 6 C2.99 5.01 3.98 4.02 5 3 C5.66 3.33 6.32 3.66 7 4 C6.67 5.65 6.34 7.3 6 9 C4.68 9.33 3.36 9.66 2 10 C1.34 6.7 0.68 3.4 0 0 Z " fill="#F1F4EA" transform="translate(190,294)"/>
<path d="M0 0 C1.98 0.495 1.98 0.495 4 1 C3.01 1 2.02 1 1 1 C1 1.66 1 2.32 1 3 C1.66 3 2.32 3 3 3 C3.33 4.98 3.66 6.96 4 9 C2.68 8.67 1.36 8.34 0 8 C0.33 7.01 0.66 6.02 1 5 C0.34 5 -0.32 5 -1 5 C-0.67 3.35 -0.34 1.7 0 0 Z " fill="#B8BE9E" transform="translate(184,289)"/>
<path d="M0 0 C1.093125 0.226875 2.18625 0.45375 3.3125 0.6875 C2.9825 2.3375 2.6525 3.9875 2.3125 5.6875 C1.6525 5.0275 0.9925 4.3675 0.3125 3.6875 C-2.01025177 3.28702556 -4.34489357 2.9477896 -6.6875 2.6875 C-4.58035839 -0.41123767 -3.86755884 -0.32775922 0 0 Z " fill="#8E937C" transform="translate(316.6875,289.3125)"/>
<path d="M0 0 C0 0.99 0 1.98 0 3 C-0.66 3 -1.32 3 -2 3 C-2.33 3.66 -2.66 4.32 -3 5 C-4.65 5 -6.3 5 -8 5 C-8 3.68 -8 2.36 -8 1 C-5.23735711 0.40267181 -2.83967231 0 0 0 Z " fill="#A7B083" transform="translate(256,186)"/>
<path d="M0 0 C0.66 0.33 1.32 0.66 2 1 C-0.31 4.3 -2.62 7.6 -5 11 C-6 8 -6 8 -5 5 C-4.34 5 -3.68 5 -3 5 C-2.87625 4.360625 -2.7525 3.72125 -2.625 3.0625 C-2.41875 2.381875 -2.2125 1.70125 -2 1 C-1.34 0.67 -0.68 0.34 0 0 Z " fill="#F7FAE8" transform="translate(165,192)"/>
<path d="M0 0 C0.33 0.99 0.66 1.98 1 3 C1.66 3 2.32 3 3 3 C3 4.65 3 6.3 3 8 C2.67 8 2.34 8 2 8 C1.67 10.31 1.34 12.62 1 15 C0.67 15 0.34 15 0 15 C0 10.05 0 5.1 0 0 Z " fill="#F6F8EF" transform="translate(274,289)"/>
<path d="M0 0 C0 2 0 2 -1.3125 3.4375 C-1.869375 3.953125 -2.42625 4.46875 -3 5 C-3.495 5.53625 -3.99 6.0725 -4.5 6.625 C-6 8 -6 8 -9 9 C-9 6 -9 6 -7.5390625 4.39453125 C-6.59160156 3.61142578 -6.59160156 3.61142578 -5.625 2.8125 C-4.68527344 2.01779297 -4.68527344 2.01779297 -3.7265625 1.20703125 C-2 0 -2 0 0 0 Z " fill="#A8B185" transform="translate(186,175)"/>
<path d="M0 0 C1.98 0.66 3.96 1.32 6 2 C6.33 1.34 6.66 0.68 7 0 C7.66 0.66 8.32 1.32 9 2 C8.34 2 7.68 2 7 2 C7 2.66 7 3.32 7 4 C7.66 4.33 8.32 4.66 9 5 C8.34 5.66 7.68 6.32 7 7 C5.83040013 6.02433888 4.66438823 5.044375 3.5 4.0625 C2.8503125 3.51722656 2.200625 2.97195312 1.53125 2.41015625 C1.0259375 1.94480469 0.520625 1.47945312 0 1 C0 0.67 0 0.34 0 0 Z " fill="#A7B082" transform="translate(270,226)"/>
<path d="M0 0 C0.33 0.99 0.66 1.98 1 3 C1.99 3.33 2.98 3.66 4 4 C3.01 5.485 3.01 5.485 2 7 C0.68 7 -0.64 7 -2 7 C-2.33 5.68 -2.66 4.36 -3 3 C-2.01 3 -1.02 3 0 3 C0 2.01 0 1.02 0 0 Z " fill="#F1F6D4" transform="translate(253,188)"/>
<path d="M0 0 C3.14803691 1.13679111 6.18874979 2.45848549 9.25 3.8125 C5.70332822 5.06377906 3.52746562 4.53535053 0 3.375 C-0.89203125 3.08753906 -1.7840625 2.80007812 -2.703125 2.50390625 C-3.37859375 2.27574219 -4.0540625 2.04757813 -4.75 1.8125 C-1.75 -0.1875 -1.75 -0.1875 0 0 Z " fill="#ECEFD8" transform="translate(277.75,154.1875)"/>
<path d="M0 0 C0.33 0 0.66 0 1 0 C1 2.97 1 5.94 1 9 C1.99 9.33 2.98 9.66 4 10 C4 10.99 4 11.98 4 13 C3.01 13 2.02 13 1 13 C-0.32229189 10.35541621 -0.09677194 8.32238699 -0.0625 5.375 C-0.05347656 4.37210938 -0.04445312 3.36921875 -0.03515625 2.3359375 C-0.02355469 1.56507813 -0.01195312 0.79421875 0 0 Z " fill="#DBE1C2" transform="translate(162,242)"/>
<path d="M0 0 C0.82810826 3.31243305 1.09278428 5.65976579 1 9 C-0.32 9 -1.64 9 -3 9 C-2.01 6.03 -1.02 3.06 0 0 Z " fill="#AAB285" transform="translate(153,214)"/>
<path d="M0 0 C0 3 0 3 -1 6 C-2.98 5.34 -4.96 4.68 -7 4 C-6 2 -6 2 -2.9375 0.875 C-1.4834375 0.441875 -1.4834375 0.441875 0 0 Z " fill="#F1F5E3" transform="translate(247,217)"/>
<path d="M0 0 C1.485 0.99 1.485 0.99 3 2 C3.1875 5.125 3.1875 5.125 3 8 C2.01 8 1.02 8 0 8 C0 5.36 0 2.72 0 0 Z " fill="#FAFCF6" transform="translate(231,293)"/>
<path d="M0 0 C2.61273988 1.30636994 2.97236124 2.28409758 4 5 C4.125 8.25 4.125 8.25 4 11 C1.82145293 7.7321794 0.50239966 4.61941735 -1 1 C-0.67 0.67 -0.34 0.34 0 0 Z " fill="#F5F8E9" transform="translate(346,210)"/>
<path d="M0 0 C0.99 0.33 1.98 0.66 3 1 C2.34 3.64 1.68 6.28 1 9 C0.34 8.67 -0.32 8.34 -1 8 C-1.04241723 5.66705225 -1.04092937 3.33297433 -1 1 C-0.67 0.67 -0.34 0.34 0 0 Z " fill="#777D63" transform="translate(310,292)"/>
<path d="M0 0 C0.33 0 0.66 0 1 0 C1 4.62 1 9.24 1 14 C0.67 14 0.34 14 0 14 C0 11.03 0 8.06 0 5 C-0.66 5 -1.32 5 -2 5 C-2 4.01 -2 3.02 -2 2 C-1.34 2 -0.68 2 0 2 C0 1.34 0 0.68 0 0 Z " fill="#FAFDEF" transform="translate(226,290)"/>
<path d="M0 0 C0.33 0.66 0.66 1.32 1 2 C1.99 2 2.98 2 4 2 C3.67 3.65 3.34 5.3 3 7 C2.01 7 1.02 7 0 7 C0 4.69 0 2.38 0 0 Z " fill="#A7AE82" transform="translate(288,257)"/>
<path d="M0 0 C0.99 0.33 1.98 0.66 3 1 C1.76302083 2.46484375 0.52604167 3.9296875 -0.7109375 5.39453125 C-1.89201099 6.8655046 -2.95358529 8.43037794 -4 10 C-3.5205537 5.78087253 -2.83374881 3.20336822 0 0 Z " fill="#A5AD82" transform="translate(223,229)"/>
<path d="M0 0 C2.4375 0.75 2.4375 0.75 5 2 C5.8125 4.125 5.8125 4.125 6 6 C4.125 5.8125 4.125 5.8125 2 5 C0.75 2.4375 0.75 2.4375 0 0 Z " fill="#888D74" transform="translate(331,298)"/>
<path d="M0 0 C2.475 0.99 2.475 0.99 5 2 C4.67 3.32 4.34 4.64 4 6 C2.02 4.68 0.04 3.36 -2 2 C-1.34 1.34 -0.68 0.68 0 0 Z " fill="#A7B081" transform="translate(200,250)"/>
<path d="M0 0 C0.66 0.66 1.32 1.32 2 2 C1.625 4.625 1.625 4.625 1 7 C-0.32 7.33 -1.64 7.66 -3 8 C-2.690625 7.236875 -2.38125 6.47375 -2.0625 5.6875 C-1.32106407 3.81210323 -0.63771783 1.91315348 0 0 Z " fill="#A7AF80" transform="translate(185,241)"/>
<path d="M0 0 C2.125 0.375 2.125 0.375 4 1 C4 2.65 4 4.3 4 6 C2.02 4.68 0.04 3.36 -2 2 C-1.34 1.34 -0.68 0.68 0 0 Z " fill="#ABB483" transform="translate(160,226)"/>
<path d="M0 0 C1.32 0.99 2.64 1.98 4 3 C3.67 3.66 3.34 4.32 3 5 C2.67 5 2.34 5 2 5 C1.67 6.65 1.34 8.3 1 10 C0.67 10 0.34 10 0 10 C0 6.7 0 3.4 0 0 Z " fill="#E8EDDB" transform="translate(165,294)"/>
<path d="M0 0 C0.66 0 1.32 0 2 0 C3.35439668 2.70879335 3.06501451 5.00933268 3 8 C2.34 8 1.68 8 1 8 C0.67 5.36 0.34 2.72 0 0 Z " fill="#78805C" transform="translate(302,291)"/>
<path d="M0 0 C0.6875 1.75 0.6875 1.75 1 4 C-0.4375 6.25 -0.4375 6.25 -2 8 C-2.99 7.34 -3.98 6.68 -5 6 C-4.01 5.67 -3.02 5.34 -2 5 C-0.78130071 2.49552484 -0.78130071 2.49552484 0 0 Z " fill="#F2F5E0" transform="translate(168,259)"/>
<path d="M0 0 C1 3 1 3 0 6 C-2.0625 7.1875 -2.0625 7.1875 -4 8 C-2.25 2.25 -2.25 2.25 0 0 Z " fill="#F4F6E0" transform="translate(295,256)"/>
<path d="M0 0 C2.35171131 0.59861742 4.6859378 1.26924352 7 2 C7.33 2.66 7.66 3.32 8 4 C5.69 4 3.38 4 1 4 C1 3.34 1 2.68 1 2 C0.34 1.67 -0.32 1.34 -1 1 C-0.67 0.67 -0.34 0.34 0 0 Z " fill="#EFF2DF" transform="translate(315,248)"/>
<path d="M0 0 C0.99 0.33 1.98 0.66 3 1 C-0.465 3.97 -0.465 3.97 -4 7 C-3.04065919 3.16263678 -2.76390737 2.40339772 0 0 Z " fill="#EFF2DC" transform="translate(172,184)"/>
<path d="M0 0 C3.53600465 1.91135386 5.78972846 3.62642766 8 7 C4.66272214 5.82744291 2.22562513 4.81131596 0 2 C0 1.34 0 0.68 0 0 Z " fill="#ACB38B" transform="translate(320,180)"/>
<path d="M0 0 C1.32 0.66 2.64 1.32 4 2 C-0.75 6 -0.75 6 -3 6 C-2 4 -1 2 0 0 Z " fill="#F7F9E6" transform="translate(187,169)"/>
<path d="M0 0 C0.94875 0.350625 1.8975 0.70125 2.875 1.0625 C2.875 1.7225 2.875 2.3825 2.875 3.0625 C1.555 3.3925 0.235 3.7225 -1.125 4.0625 C-1.455 3.4025 -1.785 2.7425 -2.125 2.0625 C-3.115 1.4025 -4.105 0.7425 -5.125 0.0625 C-3.125 -0.9375 -3.125 -0.9375 0 0 Z " fill="#A3AC7F" transform="translate(297.125,163.9375)"/>
<path d="M0 0 C0.33 0 0.66 0 1 0 C1 1.98 1 3.96 1 6 C-0.32 5.67 -1.64 5.34 -3 5 C-3 4.01 -3 3.02 -3 2 C-2.01 2 -1.02 2 0 2 C0 1.34 0 0.68 0 0 Z " fill="#79815E" transform="translate(273,298)"/>
<path d="M0 0 C1.32 0.66 2.64 1.32 4 2 C3.34 3.32 2.68 4.64 2 6 C1.01 6 0.02 6 -1 6 C-0.67 4.02 -0.34 2.04 0 0 Z " fill="#848A6D" transform="translate(248,298)"/>
<path d="M0 0 C-1.22934015 3.68802044 -2.93859378 4.72356973 -6 7 C-6.66 6.67 -7.32 6.34 -8 6 C-7.0479279 4.99403703 -6.08812654 3.99538437 -5.125 3 C-4.59132812 2.443125 -4.05765625 1.88625 -3.5078125 1.3125 C-2 0 -2 0 0 0 Z " fill="#A3AA80" transform="translate(176,185)"/>
</svg>
